<svg width="17" height="17" viewBox="0 0 17 17" fill="none" xmlns="http://www.w3.org/2000/svg">
<path d="M8.32031 0C6.80854 0 5.40663 0.377604 4.11458 1.13281C2.86003 1.86611 1.86611 2.86003 1.13281 4.11458C0.377604 5.40663 0 6.80854 0 8.32031C0 9.83209 0.377604 11.234 1.13281 12.526C1.86611 13.7806 2.86003 14.7745 4.11458 15.5078C5.40663 16.263 6.80854 16.6406 8.32031 16.6406C9.83209 16.6406 11.234 16.263 12.526 15.5078C13.7806 14.7745 14.7745 13.7806 15.5078 12.526C16.263 11.234 16.6406 9.83209 16.6406 8.32031C16.6406 6.80854 16.263 5.40663 15.5078 4.11458C14.7745 2.86003 13.7806 1.86611 12.526 1.13281C11.234 0.377604 9.83209 0 8.32031 0ZM8.32031 12.5C8.08838 12.5 7.89307 12.4154 7.73438 12.2461C7.57812 12.0794 7.5 11.8776 7.5 11.6406V8.32031C7.5 8.08594 7.57812 7.89062 7.73438 7.73438C7.89062 7.57812 8.08594 7.5 8.32031 7.5C8.55469 7.5 8.75 7.57812 8.90625 7.73438C9.0625 7.89062 9.14062 8.08594 9.14062 8.32031V11.6406C9.14062 11.8776 9.0625 12.0794 8.90625 12.2461C8.74756 12.4154 8.55225 12.5 8.32031 12.5ZM9.14062 5.82031H7.5V4.14062H9.14062V5.82031Z" fill="#2B8CEE"/>
</svg>
